<?xml version="1.0" standalone="no"?><!DOCTYPE svg PUBLIC "-//W3C//DTD SVG 1.1//EN" "http://www.w3.org/Graphics/SVG/1.1/DTD/svg11.dtd"><svg class="icon" width="200px" height="200.00px" viewBox="0 0 1024 1024" version="1.1" xmlns="http://www.w3.org/2000/svg"><path d="M960.02055459 411.05260127C936.56614942 214.87569365 744.98164297 62.05024531 512.0655295 62.05024531c-3.71813643 0-7.54681201 0-11.26494757 0.09044121-1.27622549 0-2.4318624 0.11053916-3.70808701 0.11053916-2.56249951 0.09044121-5.02450839 0.09044121-7.55686143 0.20098037-1.50735234 0.09044121-2.90416552 0.20098037-4.41151787 0.20098038-2.20073467 0.09044121-4.53210644 0.20098037-6.73284111 0.40196074l-4.75318565 0.2914207c-2.10024492 0.20098037-4.30097959 0.31151953-6.39117422 0.5124999-1.62794092 0.10048974-3.25588184 0.30147011-4.88382274 0.40196075l-6.14999796 0.59289257c-1.62794092 0.20098037-3.25588184 0.40196075-4.88382187 0.5124999-2.00980371 0.20098037-4.01960654 0.49240195-6.02941025 0.69338145-1.62794092 0.20098037-3.25588184 0.40196075-4.87377334 0.71348027l-5.91887109 0.8943627c-1.62794092 0.21102979-3.25588184 0.50245049-4.88382188 0.70343086-2.00980371 0.30147011-3.94926328 0.60294112-5.91887109 1.00490185-1.62794092 0.30147011-3.25588184 0.60294112-4.88382276 0.80392149-2.00980371 0.40196075-3.93921474 0.70343086-5.79828252 1.1053916l-4.76323418 0.90441211c-2.00980371 0.40196075-3.94926328 0.80392148-5.80833105 1.20588223-1.50735234 0.30147011-3.13529326 0.70343086-4.64264649 1.00490098-2.00980371 0.40196075-3.94926328 0.90441123-5.91887021 1.40686259-1.51740176 0.40196075-3.01470469 0.70343086-4.53210733 1.1053916-2.00980371 0.50245049-3.94926328 1.00490185-6.02940938 1.50735323-1.38676465 0.40196075-2.89411699 0.70343086-4.29093017 1.1053916-2.09019551 0.60294112-4.18039102 1.20588223-6.27058652 1.70833271-1.27622549 0.40196075-2.67303867 0.70343086-3.94926417 1.10539161-2.44191094 0.70343086-4.76323418 1.4068626-7.08455654 2.21078408-1.00490185 0.30147011-2.00980371 0.5928917-3.01470556 0.90441123-3.36642099 1.1053916-6.62230195 2.11029346-9.98872207 3.31617568l-1.73848008 0.60294111c-2.67303867 0.8943627-5.45661651 1.90931309-8.12965518 2.90416553-1.16568633 0.40196075-2.32132324 0.90441123-3.48700868 1.30637286l-6.26053711 2.41176357c-1.27622549 0.50245049-2.67303867 1.00490185-3.94926416 1.60784297-1.85906778 0.80392148-3.83872412 1.50735234-5.6977919 2.31127382-1.38676465 0.60294112-2.78357783 1.1053916-4.01960742 1.70833272-1.85906778 0.80392148-3.59754786 1.50735234-5.45661563 2.31127383l-4.18039101 1.80882333-5.22548878 2.41176358c-1.39681318 0.5928917-2.79362637 1.30637198-4.18039101 2.00980371-1.73848008 0.80392148-3.36642099 1.60784297-5.11494961 2.50220479l-4.17034248 2.11029433c-1.62794092 0.80392148-3.37646953 1.70833271-5.0245084 2.51225421-1.38676465 0.70343086-2.66298925 1.4068626-4.01960654 2.11029345-1.61789151 0.90441123-3.24583242 1.80882334-4.87377334 2.61274395-1.38676465 0.70343086-2.67303867 1.50735234-3.94926328 2.21078408-1.62794092 0.90441123-3.24583242 1.80882334-4.87377334 2.81372431-1.27622549 0.70343086-2.56249951 1.50735234-3.94926328 2.31127383-1.62794092 0.90441123-3.25588184 1.90931309-4.87377334 2.91421494-1.27622549 0.79387208-2.5524501 1.50735234-3.82867559 2.31127383-1.62794092 1.00490185-3.25588184 2.00980371-4.76323417 3.01470557-1.27622549 0.80392148-2.44191094 1.50735234-3.59754786 2.31127383-1.63798945 1.1053916-3.25588184 2.21078408-4.88382276 3.21568505-1.15563692 0.80392148-2.32132324 1.50735234-3.36642011 2.31127383-1.73848008 1.20588223-3.47696016 2.41176445-5.10490107 3.61764668-1.00490185 0.70343086-2.09019551 1.4068626-3.01470469 2.11029345-2.09019551 1.50735234-4.01960654 2.91421494-6.02941025 4.42156729-0.69338232 0.49240195-1.27622549 0.8943627-2.00980284 1.40686172-2.67303867 2.00980371-5.22548877 4.01960654-7.77793974 6.02941026-0.70343086 0.50245049-1.27622549 1.1053916-2.00980284 1.60784297-1.85906778 1.50735234-3.82867559 3.01470469-5.68774336 4.62254765-0.92450918 0.80392148-1.84901924 1.60784297-2.78357783 2.31127383-1.62794092 1.30637198-3.13529326 2.61274482-4.64264648 4.01960654-1.00490185 0.91446065-2.00980371 1.81887187-3.01470469 2.71323458-1.38676465 1.31642138-2.90416552 2.5122542-4.29093017 3.82867558-1.00490185 0.8943627-2.09019551 1.89926455-3.13529327 2.80367578-1.39681318 1.20588223-2.67303867 2.5122542-4.01960654 3.71813643l-3.13529326 3.01470468c-1.27622549 1.20588223-2.56249951 2.5122542-3.838725 3.81862706a40.04533213 40.04533213 0 0 0-3.01470469 3.11519531c-1.27622549 1.30637198-2.5524501 2.5122542-3.71813642 3.81862617-1.00490185 1.00490185-2.00980371 2.11029346-3.01470469 3.20563652-1.16568633 1.30637198-2.44191094 2.61274482-3.59754785 3.91911592-0.93455859 1.1053916-2.00980371 2.11029346-2.90416641 3.21568593-1.16568633 1.30637198-2.33137178 2.61274482-3.48700869 4.01960655l-2.78357783 3.31617568c-1.16568633 1.30637198-2.33137178 2.71323457-3.4870087 4.01960655l-2.78357782 3.30612627c-1.16568633 1.41691114-2.21078408 2.82377373-3.36642012 4.22058779-0.93455859 1.11544102-1.74852862 2.21078408-2.56249951 3.31617568-1.15563692 1.4068626-2.20073467 2.91421494-3.35637159 4.32107666-0.82401943 1.1053916-1.62794092 2.21078408-2.45196034 3.21568594-1.15563692 1.50735234-2.20073467 3.11519531-3.35637159 4.62254766-0.70343086 1.00490185-1.51740176 2.10024492-2.21078408 3.11519531l-3.4870087 5.12499814c-0.57279375 0.8943627-1.27622549 1.79877393-1.85906777 2.80367579-1.50735234 2.21078408-2.89411699 4.52205791-4.41151875 6.83333174l-0.69338232 1.20588222c-1.62794092 2.71323457-3.36642099 5.32597852-4.87377246 8.03921309-0.46225459 0.80392148-0.93455859 1.69828417-1.39681407 2.50220478-1.00490185 1.90931309-2.21078408 3.81862617-3.24583242 5.72794014-0.58284317 1.1053916-1.16568633 2.11029346-1.74852861 3.21568506l-2.78357783 5.12499902c-0.58284317 1.20588223-1.16568633 2.31127383-1.85906778 3.51715606-0.81397002 1.59779355-1.61789151 3.20563653-2.44191093 4.91396924-0.57279375 1.20588223-1.15563692 2.5122542-1.73848008 3.71813554-0.81397002 1.60784297-1.50735234 3.21568506-2.32132324 4.82352891-0.58284317 1.30637198-1.15563692 2.5122542-1.73848008 3.81862617l-2.16053877 4.70293945c-0.58284317 1.30637198-1.00490185 2.61274482-1.62794004 3.90906738-0.69338232 1.61789151-1.27622549 3.21568506-2.00980371 4.82352891a41.48234121 41.48234121 0 0 0-1.50735234 4.01960654c-0.5928917 1.60784297-1.28627403 3.21568506-1.85906865 4.82352803-0.47230401 1.30637198-0.93455859 2.71323457-1.39681319 4.01960654-0.58284317 1.60784297-1.16568633 3.30612627-1.73848008 4.91396924-0.47230401 1.30637198-0.93455859 2.71323457-1.27622461 4.01960655-0.58284317 1.70833271-1.00490185 3.31617568-1.51740175 5.02450839-0.46225459 1.30637198-0.81397002 2.71323457-1.15563692 4.01960742l-1.39681318 5.12499815c-0.35171543 1.30637198-0.69338232 2.60269541-1.00490186 4.01960654-0.46225459 1.81887187-0.92450918 3.51715606-1.27622549 5.33602793-0.35171543 1.29632344-0.70343086 2.60269541-0.93455859 3.90906826-0.45220606 1.90931309-0.80392148 3.71813643-1.27622461 5.62744951-0.23112773 1.20588223-0.57279375 2.41176445-0.80392149 3.71813555-0.47230401 2.11029346-0.82401943 4.22058692-1.16568632 6.32083184-0.23112773 1.00490185-0.3416669 2.00980371-0.58284229 3.01470557-0.58284317 3.10514589-1.00490185 6.22034121-1.50735322 9.43602626a1.08529365 1.08529365 0 0 1-0.1205877 0.60294112c-0.46225459 2.81372432-0.80392148 5.72793925-1.15563692 8.53161504a83.20585957 83.20585957 0 0 0-2.45196034 20.23872011v95.46566045c0 54.63650479 51.08920137 98.73159082 114.14678291 98.73159082s114.13673349-44.21567461 114.13673349-98.73159082v-95.46566045c0-54.64655332-51.09925078-98.74163935-114.13673349-98.74163935a133.7323166 133.7323166 0 0 0-24.85121924 2.31127383c0.69338232-1.60784297 1.38676465-3.21568506 2.0901955-4.72303828a3.21568506 3.21568506 0 0 1 0.46225547-0.90441123c1.00490185-2.31127383 2.09019551-4.51200849 3.24583242-6.82328233a14.06862334 14.06862334 0 0 0 0.9345586-1.9193625c0.81397002-1.59779355 1.62794092-3.30612627 2.44191093-4.91396923 0.3416669-0.70343086 0.80392148-1.50735234 1.15563692-2.21078409 0.93455859-1.60784297 1.73848008-3.31617568 2.67303867-4.92401778a13.98823154 13.98823154 0 0 0 0.92450918-1.80882333c1.27622549-2.21078408 2.44191094-4.42156729 3.71813643-6.53186074l0.69338232-1.20588223c1.00490185-1.79877393 2.21078408-3.51715606 3.25588096-5.31592998a22.69068047 22.69068047 0 0 0 1.27622549-2.11029346c0.93455859-1.50735234 2.00980371-3.01470469 2.90416552-4.52205703a18.5705833 18.5705833 0 0 0 1.2762255-2.00980371c1.27622549-1.90931309 2.5524501-3.71813643 3.82867558-5.52695976 0.12058857-0.20098037 0.35171543-0.50245049 0.47230312-0.70343086 1.50735234-2.11029346 2.89411699-4.12009717 4.41151875-6.22034122a16.55073106 16.55073106 0 0 0 1.26617608-1.81887187c1.16568633-1.49730381 2.21078408-2.91421494 3.37646953-4.41151875 0.46225459-0.70343086 1.00490185-1.30637198 1.50735235-2.00980371 1.15563692-1.50735234 2.32132324-3.01470469 3.59754873-4.42156729 0.46225459-0.50245049 0.81397002-1.00490185 1.28627401-1.60784209 1.61789151-2.00980371 3.24583242-3.9191168 5.02450841-5.82842988a8.2200955 8.2200955 0 0 0 0.93455859-1.09534307c1.38676465-1.60784297 2.78357783-3.11519531 4.1703416-4.72303828a23.8061206 23.8061206 0 0 0 1.62794092-1.80882246c1.27622549-1.30637198 2.44191094-2.71323457 3.71813642-4.01960742a24.02719893 24.02719893 0 0 0 1.62794093-1.80882247c1.62794092-1.70833271 3.25588184-3.31617568 4.87377245-5.02450839 0.23112773-0.20098037 0.35171543-0.40196075 0.58284317-0.60294112l5.5772042-5.42646914a11.64681035 11.64681035 0 0 0 1.61789238-1.60784297c1.39681318-1.29632344 2.79362637-2.60269541 4.18039101-3.80857763a14.74190771 14.74190771 0 0 1 2.00980284-1.70833271c1.50735234-1.30637198 2.89411699-2.61274482 4.41151875-3.91911593l1.50735234-1.30637284c2.00980371-1.70833271 3.94926328-3.41666543 6.02941026-5.02450841a12.85269258 12.85269258 0 0 1 1.27622549-1.00490185c1.61789151-1.30637198 3.24583242-2.71323457 5.02450839-4.01960654 0.69338232-0.5124999 1.38676465-1.1053916 2.00980284-1.61789151 1.50735234-1.09534307 3.01470469-2.30122529 4.53210644-3.40661689 0.69338232-0.5124999 1.27622549-1.00490185 2.00980371-1.50735235 2.00980371-1.4068626 3.82867559-2.91421494 5.80833193-4.32107753 0.23112773-0.10048974 0.35171543-0.30147011 0.58284317-0.40196075 2.20073467-1.50735234 4.29093018-3.01470469 6.50171337-4.52205703 0.69338232-0.40196075 1.27622549-0.90441123 2.00980372-1.30637285 1.62794092-1.1053916 3.25588184-2.11029346 4.87377334-3.21568505 0.70343086-0.50245049 1.51740176-1.00490185 2.2107832-1.4068626 1.73848008-1.1053916 3.36642099-2.20073467 5.10490107-3.20563565 0.58284317-0.40196075 1.16568633-0.71348027 1.74852862-1.10539248 2.32132324-1.4068626 4.52205791-2.81372432 6.85342969-4.12009629a6.33088037 6.33088037 0 0 1 1.50735234-0.80392149c1.85906778-1.1053916 3.70808701-2.11029346 5.56715567-3.21568593 0.81397002-0.40196075 1.50735234-0.90441123 2.33137177-1.30637197 1.73848008-0.90441123 3.35637158-1.80882334 5.10490019-2.71323457 0.69338232-0.40196075 1.50735234-0.80392148 2.20073468-1.20588223 2.21078408-1.20588223 4.53210644-2.31127383 6.74289052-3.41666543 0.23112773-0.10048974 0.3416669-0.20098037 0.57279375-0.30147099 2.44191094-1.20588223 4.87377334-2.41176445 7.31568428-3.51715518 0.69338232-0.29142158 1.50735234-0.69338232 2.21078408-1.00490186 1.73848008-0.80392148 3.59754786-1.59779355 5.33602793-2.40171504 0.81397002-0.40196075 1.62794092-0.71348027 2.5524501-1.1053916 1.85906778-0.80392148 3.83872412-1.70833271 5.80833193-2.51225419 0.58284317-0.30147011 1.27622549-0.50245049 1.85906778-0.80392149 2.5524501-1.1053916 5.11494961-2.11029346 7.65735117-3.11519531 0.5928917-0.20098037 1.16568633-0.40196075 1.62794091-0.60294112 2.09019551-0.80392148 4.06985185-1.60784297 6.16004737-2.31127382 0.81397002-0.30147011 1.73848008-0.60294112 2.5524501-0.90441123 1.85906778-0.70343086 3.70808701-1.30637198 5.5772042-2.00980372a22.19827852 22.19827852 0 0 1 2.4318624-0.80392148c2.56249951-0.80392148 5.02450839-1.70833271 7.54681113-2.5122542 0.12058857 0 0.23112773-0.10048974 0.35171631-0.10048974 2.67303867-0.80392148 5.33602793-1.70833271 8.03921308-2.41176446 0.81397002-0.20098037 1.62794092-0.49240195 2.44191094-0.69338233 2.00980371-0.61298965 3.94926328-1.11544102 5.80833194-1.60784297 0.92450918-0.20098037 1.85906778-0.50245049 2.66298925-0.70343086 2.09019551-0.60294112 4.18039102-1.11544102 6.27058653-1.60784296 0.70343086-0.20098037 1.39681318-0.30147011 2.00980371-0.50245049 2.78357783-0.70343086 5.56715566-1.31642138 8.36078203-1.90931309 0.57279375-0.10048974 1.27622549-0.30147011 1.84901924-0.40196073 2.21078408-0.50245049 4.42156729-0.90441123 6.62230195-1.4068626l2.78357784-0.60294112c2.00980371-0.40196075 4.06985185-0.80392148 6.02941024-1.1053916 0.93455859-0.20098037 1.73848008-0.30147011 2.6730378-0.50245049 2.78357783-0.50245049 5.5772042-0.90441123 8.36078204-1.4068626h0.23112773c2.90416552-0.40196075 5.80833193-0.80392148 8.59190977-1.20588222l2.67303779-0.30147012c2.09019551-0.30147011 4.18039102-0.50245049 6.27058652-0.80392148l2.90416641-0.301471c2.20073467-0.20098037 4.52205791-0.50245049 6.73284111-0.70343086 0.69338232-0.10048974 1.38676465-0.10048974 2.09019551-0.20098037 2.90416552-0.30147011 5.91887109-0.50245049 8.82303662-0.70343086 0.69338232 0 1.39681318-0.10048974 2.09019551-0.10049062 2.32132324-0.10048974 4.6426456-0.30147011 6.85342969-0.40196075 0.92450918 0 2.00980371-0.10048974 2.89411699-0.10048974 2.10024492-0.10048974 4.30097959-0.20098037 6.39117421-0.20098037 0.92450918 0 1.85906778-0.10048974 2.78357784-0.10049063 3.01470469-0.10048974 6.02941026-0.10048974 9.04411581-0.10048975 165.4570626 0 306.41462227 90.09948516 361.10137149 216.66685255a134.65682578 134.65682578 0 0 0-24.84116894-2.41176358c-62.93699297 0-114.13673349 44.21567461-114.13673438 98.74163936v95.41541513c0 54.64655332 51.08920137 98.74163935 114.13673438 98.74164024a130.03427812 130.03427812 0 0 0 29.72499169-3.41666631C835.55343213 733.37481758 727.24512763 818.66082325 592.9902626 843.4718457c-15.78700547-21.10293545-43.30121396-35.17155878-74.54360742-35.17155878-48.99900586 0-88.82326055 34.35758877-88.82325968 76.84483183s39.71371464 76.84483184 88.82325968 76.84483184c43.66297793 0 80.01027246-27.32327666 87.42644735-63.38919815 196.93058378-36.04582354 346.36951318-183.36441094 356.12710841-362.49818554a83.14556572 83.14556572 0 0 0 0.58284317-9.33553653v-95.46566045a90.44115205 90.44115205 0 0 0-2.56249952-20.28896455z m-784.22527617-22.20832793c27.1323457 0 49.11959443 18.992642 49.11959444 42.49729248v95.46566045c0 23.40415987-22.10783731 42.48724307-49.11959444 42.48724306s-49.10954502-18.992642-49.1095459-42.48724306v-75.17669502a279.75458057 279.75458057 0 0 1 1.74852862-31.34288408c5.56715566-18.08823076 24.73063067-31.44337383 47.36101728-31.44337383z m672.53045361 180.5004413c-27.1323457 0-49.10954502-18.97254404-49.10954502-42.48724306v-95.46566044c0-23.39411133 22.10783731-42.48724307 49.10954502-42.48724307 22.76102286 0 41.79386074 13.26470185 47.49165352 31.3428832a282.61855019 282.61855019 0 0 1 1.73848007 31.44337383v65.89140381c0 4.82352802-0.11053916 9.74754668-0.34166601 14.56102529-3.13529326 20.79141592-23.92670918 37.1813625-48.88846758 37.1813625z m0 1e-8" /></svg>