<?xml version="1.0" standalone="no"?><!DOCTYPE svg PUBLIC "-//W3C//DTD SVG 1.1//EN" "http://www.w3.org/Graphics/SVG/1.1/DTD/svg11.dtd"><svg class="icon" width="200px" height="200.00px" viewBox="0 0 1024 1024" version="1.1" xmlns="http://www.w3.org/2000/svg"><path d="M892.4 557.9L761.7 331.2c-4.7-8.1-13.2-13.3-22.6-13.6L623 313.3c-5.8-6.2-11.9-12.4-18.2-18.8-144-143.8-435.4-165.6-447.7-166.5-8-0.5-15.6 2.3-21.2 7.9-5.6 5.6-8.5 13.3-7.9 21.1 0.9 12.4 22.6 303.8 166.5 447.6 6.3 6.3 12.6 12.4 18.8 18.2l4.3 116.1c0.3 9.4 5.5 17.9 13.6 22.6l226.6 130.7c4.2 2.4 8.8 3.7 13.6 3.7 5.6 0 11.2-1.8 15.7-5 8.7-6.2 13-16.8 11-27.3L574 735.5c10.8-2.5 21.5-6.3 32-11 3.2 25.7 15.7 51.4 37.5 73.2 40 40 161.9 59.2 185.9 62.6 1.3 0.2 2.6 0.3 3.8 0.3 7.1 0 14.1-2.8 19.3-8 6.1-6.1 8.9-14.6 7.7-23.1-3.4-24-22.6-145.9-62.6-185.9-21.8-21.8-47.5-34.3-73.1-37.5 4.7-10.5 8.5-21.2 11-32l128.3 24.2c10.5 1.9 21.1-2.3 27.3-11 6.1-8.7 6.6-20.2 1.3-29.4M711.1 659.7c17.5 0 34.8 9.2 48 22.3 15.7 15.7 31.2 69.9 40.7 117.8-47.9-9.5-102-25-117.8-40.7-22.5-22.5-33.3-57.2-6.7-83.8 11.1-11 23.5-15.6 35.8-15.6m6.5-144.5c-7.7-1.5-15.8 0.5-21.9 5.4-6.2 4.9-10 12.3-10.3 20.2-1.5 33.5-17.3 64.9-48.5 96-31.1 31.1-62.5 47-96 48.5-7.9 0.4-15.2 4.1-20.1 10.3-4.9 6.2-6.9 14.2-5.4 22l18.5 98L371.5 722l-4.1-110.4c0.2-7.7-2.7-15.3-8.8-20.9-8.4-7.7-16.9-15.9-25.6-24.6-103-103-137.4-302.2-147.2-380.3 78.1 9.8 277.3 44.2 380.3 147.2 8.7 8.7 16.8 17.2 24.6 25.6 5.5 5.9 13 9.2 20.7 8.7l110.6 4.1 93.5 162.2-97.9-18.4zM403.1 403.1c-20.6 20.6-31.9 47.9-31.9 77.1 0 29.1 11.3 56.5 31.9 77 21.3 21.2 49.1 31.9 77.1 31.9 27.9 0 55.8-10.6 77-31.9 20.6-20.6 31.9-47.9 31.9-77s-11.3-56.5-31.9-77.1c-42.5-42.5-111.6-42.5-154.1 0m115.6 115.6c-21.3 21.2-55.8 21.2-77.1 0-10.3-10.3-16-24-16-38.5 0-14.6 5.7-28.2 16-38.5 10.6-10.6 24.6-15.9 38.5-15.9 13.9 0 27.9 5.3 38.5 15.9 10.3 10.3 16 23.9 16 38.5 0 14.5-5.6 28.2-15.9 38.5" /></svg>